<?xml version="1.0" standalone="no"?>
<!DOCTYPE svg PUBLIC "-//W3C//DTD SVG 20010904//EN"
 "http://www.w3.org/TR/2001/REC-SVG-20010904/DTD/svg10.dtd">
<svg version="1.0" xmlns="http://www.w3.org/2000/svg"
 width="35.000000pt" height="35.000000pt" viewBox="0 0 35.000000 35.000000"
 preserveAspectRatio="xMidYMid meet">

<g transform="translate(0.000000,35.000000) scale(0.100000,-0.100000)"
fill="#000000" stroke="none">
<path d="M105 335 c-44 -22 -92 -81 -100 -122 -12 -64 3 -112 51 -159 24 -24
48 -44 54 -44 21 0 9 37 -15 48 -27 12 -65 81 -65 117 0 11 9 39 20 63 15 33
29 47 62 62 70 32 68 35 68 -112 l1 -133 32 38 c29 34 33 35 43 20 27 -41 56
54 35 111 -9 23 -14 26 -26 16 -11 -9 -12 -17 -5 -30 6 -10 10 -26 10 -36 0
-14 -2 -15 -17 -3 -13 11 -17 11 -20 2 -3 -7 -9 -13 -14 -13 -5 0 -9 43 -9 95
l0 95 -37 0 c-21 0 -51 -7 -68 -15z"/>
<path d="M230 322 c0 -10 11 -25 25 -32 26 -14 65 -83 65 -115 0 -43 -41 -104
-84 -124 -23 -12 -48 -21 -54 -21 -9 0 -12 37 -12 130 0 72 -3 130 -7 130 -5
0 -19 -17 -32 -37 -23 -35 -24 -36 -38 -17 -14 19 -14 19 -29 0 -16 -23 -19
-89 -3 -117 16 -31 30 -12 22 34 -6 40 -5 41 12 27 14 -11 19 -12 22 -2 12 33
18 4 18 -80 l0 -93 35 -3 c47 -4 119 34 147 77 49 74 38 160 -29 224 -43 41
-58 46 -58 19z"/>
</g>
</svg>
